<!-- assets/devski-discord-banner.svg -->
<svg xmlns="http://www.w3.org/2000/svg" width="1060" height="180" viewBox="0 0 1060 180">
  <!-- Background -->
  <rect width="1060" height="180" rx="18" fill="#111111"></rect>
  <rect width="1060" height="180" rx="18" fill="#32CD32" opacity="0.12"></rect>

  <!-- Discord icon (circle + glyph) -->
  <g transform="translate(28,28)">
    <circle cx="62" cy="62" r="62" fill="#5865F2"></circle>
    <!-- Discord glyph -->
    <path fill="#ffffff" d="M98.8 85.7c-7.6 5.5-14.9 8.8-22.2 9.9-1.9-2.8-3.7-5.6-5-8.5 2.8-.5 5.4-1.3 8-2.2-7.6-2.7-14.9-2.7-22.6 0 2.6.9 5.3 1.7 8 2.2-1.3 2.9-3.1 5.7-5 8.5-7.3-1.1-14.6-4.4-22.2-9.9C45 70.2 55.1 60.9 68.2 58.1c0 0 3.1 3.6 4.4 5.4 4.8-1.1 9.6-1.1 14.4 0 1.3-1.8 4.4-5.4 4.4-5.4 13.1 2.8 23.2 12.1 27.4 27.6zM72.5 79.5c-4 0-7.2 3.6-7.2 8.1s3.2 8.1 7.2 8.1c4 0 7.2-3.6 7.2-8.1 0-4.5-3.2-8.1-7.2-8.1zm27 0c-4 0-7.2 3.6-7.2 8.1s3.2 8.1 7.2 8.1c4 0 7.2-3.6 7.2-8.1 0-4.5-3.2-8.1-7.2-8.1z"></path>
  </g>

  <!-- Title + subtitle -->
  <text x="180" y="88" fill="#FFFFFF" font-family="Segoe UI, Arial, sans-serif" font-size="36" font-weight="700">
    Join the DevSki Discord
  </text>
  <text x="180" y="128" fill="#B5FFB5" font-family="Segoe UI, Arial, sans-serif" font-size="22">
    Bugs · Suggestions · Releases
  </text>

  <!-- Right chevron -->
  <g transform="translate(980,70)" fill="#B5FFB5">
    <path d="M0 20 L24 0 L24 10 L8 20 L24 30 L24 40 Z"></path>
  </g>
</svg>
